<svg xmlns="http://www.w3.org/2000/svg" version="1.1" xmlns:xlink="http://www.w3.org/1999/xlink" xmlns:svgjs="http://svgjs.dev/svgjs" viewBox="0 0 800 800"><defs><linearGradient x1="50%" y1="0%" x2="50%" y2="100%" id="uundulate-grad"><stop stop-color="<svg xmlns=" http:="" www.w3.org="" 2000="" svg"="" version="1.1" xmlns:xlink="http://www.w3.org/1999/xlink" xmlns:svgjs="http://svgjs.dev/svgjs" viewBox="0 0 1422 800"><g shape-rendering="crispEdges" stroke-linejoin="round" fill="none" stroke-width="2" stroke="hsl(212.73,15.94%,13.53%)"><polygon points="1422,100 1244.25,100 1244.25,0"></polygon><polygon points="1244.25,100 1244.25,0 1066.5,0"></polygon><polygon points="1244.25,200 1244.25,100 1066.5,100"></polygon><polygon points="1422,200 1422,100 1244.25,100"></polygon><polygon points="1066.5,0 888.75,0 1066.5,100"></polygon><polygon points="888.75,100 711,100 711,0"></polygon><polygon points="888.75,200 711,100 711,200"></polygon><polygon points="1066.5,200 888.75,100 1066.5,100"></polygon><polygon points="1066.5,200 888.75,300 1066.5,300"></polygon><polygon points="888.75,200 888.75,300 711,200"></polygon><polygon points="888.75,300 799.875,300 799.875,350"></polygon><polygon points="711,300 799.875,350 799.875,300"></polygon><polygon points="799.875,350 799.875,400 711,350"></polygon><polygon points="888.75,350 799.875,400 799.875,350"></polygon><polygon points="1066.5,400 888.75,300 1066.5,300"></polygon><polygon points="1422,200 1066.5,400 1066.5,200"></polygon><polygon points="533.25,0 711,100 533.25,100"></polygon><polygon points="355.5,0 533.25,0 533.25,100"></polygon><polygon points="533.25,100 533.25,200 355.5,100"></polygon><polygon points="533.25,100 711,200 711,100"></polygon><polygon points="0,0 355.5,200 0,200"></polygon><polygon points="355.5,200 177.75,200 177.75,300"></polygon><polygon points="177.75,200 177.75,300 0,200"></polygon><polygon points="177.75,300 177.75,400 0,400"></polygon><polygon points="177.75,300 355.5,300 177.75,400"></polygon><polygon points="711,300 533.25,200 533.25,300"></polygon><polygon points="533.25,200 533.25,250 444.375,200"></polygon><polygon points="444.375,200 444.375,250 355.5,250"></polygon><polygon points="444.375,250 444.375,300 355.5,250"></polygon><polygon points="533.25,300 533.25,250 444.375,300"></polygon><polygon points="533.25,300 444.375,350 444.375,300"></polygon><polygon points="444.375,350 444.375,300 355.5,350"></polygon><polygon points="444.375,400 444.375,350 355.5,350"></polygon><polygon points="444.375,350 444.375,400 533.25,350"></polygon><polygon points="711,350 622.125,350 622.125,300"></polygon><polygon points="533.25,300 622.125,350 622.125,300"></polygon><polygon points="622.125,350 533.25,350 622.125,400"></polygon><polygon points="711,400 622.125,400 622.125,350"></polygon><polygon points="711,450 711,400 622.125,450"></polygon><polygon points="622.125,450 622.125,400 533.25,450"></polygon><polygon points="622.125,500 533.25,500 533.25,450"></polygon><polygon points="711,500 711,450 622.125,450"></polygon><polygon points="533.25,400 533.25,450 444.375,400"></polygon><polygon points="444.375,450 355.5,400 444.375,400"></polygon><polygon points="355.5,450 444.375,500 355.5,500"></polygon><polygon points="444.375,450 533.25,500 444.375,500"></polygon><polygon points="533.25,500 355.5,600 533.25,600"></polygon><polygon points="711,600 711,500 533.25,500"></polygon><polygon points="355.5,450 355.5,400 266.625,400"></polygon><polygon points="266.625,450 266.625,400 177.75,450"></polygon><polygon points="266.625,500 177.75,450 177.75,500"></polygon><polygon points="355.5,450 266.625,500 266.625,450"></polygon><polygon points="177.75,400 0,400 177.75,500"></polygon><polygon points="0,600 0,500 177.75,500"></polygon><polygon points="355.5,500 355.5,600 177.75,600"></polygon><polygon points="355.5,600 0,800 0,600"></polygon><polygon points="711,700 711,600 533.25,600"></polygon><polygon points="533.25,600 355.5,700 355.5,600"></polygon><polygon points="355.5,700 355.5,800 533.25,700"></polygon><polygon points="533.25,700 711,800 711,700"></polygon><polygon points="1422,400 1244.25,400 1422,500"></polygon><polygon points="1066.5,400 1244.25,500 1066.5,500"></polygon><polygon points="1244.25,600 1244.25,500 1066.5,600"></polygon><polygon points="1422,600 1244.25,500 1244.25,600"></polygon><polygon points="977.625,400 1066.5,450 1066.5,400"></polygon><polygon points="888.75,400 977.625,400 977.625,450"></polygon><polygon points="888.75,500 977.625,450 977.625,500"></polygon><polygon points="1066.5,500 977.625,500 1066.5,450"></polygon><polygon points="888.75,500 888.75,400 711,400"></polygon><polygon points="888.75,500 711,500 711,600"></polygon><polygon points="888.75,500 1066.5,500 1066.5,600"></polygon><polygon points="888.75,600 888.75,700 1066.5,600"></polygon><polygon points="888.75,600 888.75,700 711,700"></polygon><polygon points="888.75,700 888.75,800 711,800"></polygon><polygon points="888.75,800 1066.5,700 1066.5,800"></polygon><polygon points="1422,800 1066.5,600 1422,600"></polygon></g><g fill="hsl(220, 62%, 45%)" stroke-width="3" stroke="hsl(220, 43%, 13%)"></g>" stop-opacity="1" offset="45%"&gt;</stop><stop stop-color="hsl(225,4.49%,34.9%)" stop-opacity="1" offset="100%"></stop></linearGradient></defs><g stroke-width="2" stroke="url(#uundulate-grad)" fill="none"><path d="M1166.265410638216 15.891592729190506C1287.9801480218835 321.3553054442946 1534.0573856727206 962.225153544199 1401.250831070498 1131.1453727978974C1268.4442764682753 1300.0655920515958 902.2416338881337 872.3409656386823 528.7939485475501 826.7086451469427C155.34626320696657 781.0763246552028 -162.6943451819401 1097.292300668736 -391.29805856430585 912.110234437544C-619.9017719466715 726.9281682063522 -717.2601747995936 191.65280953323338 -568.5038756878046 -62.16527276277645C-419.7475765760154 -315.9833550587864 34.08135064797034 -249.35923236000582 322.73217717228226 -306.21656058330274C611.3830036965944 -363.07388880659965 641.2840013234895 -402.18631350803525 817.0200916288923 -335.0804482345991C992.7561819342952 -267.97458296116287 1044.5506732545482 -289.57211998591333 1166.265410638216 15.891592729190506C1287.9801480218835 321.3553054442946 1534.0573856727206 962.225153544199 1401.250831070498 1131.1453727978974 "></path><path d="M1137.885209113927 30.117808560184017C1255.0919932611628 324.2680504339878 1492.0552591471542 941.4019782338958 1364.1674658264951 1104.0658930707905C1236.2796725058365 1266.7298079076854 883.6400907619964 854.8468343248796 524.0238011747676 810.9045997772787C164.40751158753892 766.9623652296775 -141.85381500918584 1071.4666384278946 -361.99072419220477 893.1431672423023C-582.1276333752236 714.81969605671 -675.8801694558153 199.36935066778096 -532.6333629037221 -45.048061913561924C-389.38655635162877 -289.4654744949048 47.63389208628337 -225.3089118960791 325.59394725784296 -280.0604131481428C603.5540024294028 -334.8119144002065 632.3475556997462 -372.4757307793667 801.5749019197638 -307.8552679234652C970.8022481397813 -243.23480506756368 1020.6784249666916 -264.03243331361966 1137.885209113927 30.117808560184017C1255.0919932611628 324.2680504339878 1492.0552591471542 941.4019782338958 1364.1674658264951 1104.0658930707905 "></path><path d="M1109.5050075896388 44.3439938735994C1222.203838500442 327.18076490610304 1450.0531326215873 920.5787724060144 1327.0841005824923 1076.9863828261057C1204.1150685433977 1233.3939932461967 865.0385476358588 837.3526724934991 519.2536538019851 795.1005238900364C173.4687599681115 752.8483752865739 -121.0132848364317 1045.6409456694748 -332.6833898201037 874.1760695294822C-544.3534948037757 702.7111933894896 -634.5001641120369 207.0858612847502 -496.76285011963955 -27.930881581925632C-359.0255361272423 -262.9476244486014 61.18643352459628 -201.25862194973053 328.4557173434039 -253.904296230561C595.7250011622114 -306.54997051139145 623.4111100760031 -342.76517856827627 786.1297122106353 -280.6301181299094C948.8483143452675 -218.49505769154263 996.8061766788351 -238.49277715890412 1109.5050075896388 44.3439938735994C1222.203838500442 327.18076490610304 1450.0531326215873 920.5787724060144 1327.0841005824923 1076.9863828261057 "></path><path d="M1081.1249281356625 58.5703012573274C1189.3158058100335 330.09360144853076 1408.051128166333 899.7556886484458 1290.0008574088024 1049.9069946517334C1171.9505866512711 1200.058300655021 846.4371265800339 819.858632732431 514.4836284995151 779.296570073107C182.53013041899612 738.7345074137827 -100.17263259336505 1019.8153749813678 -303.3759333776902 855.2090938869749C-506.57923416201527 690.602812792582 -593.120036697946 214.80249397203215 -460.8922152652446 -10.813579179976614C-328.66439383254317 -236.4296523319855 74.73909703322181 -177.20820993306944 331.31760949927707 -227.74805724266668C587.8961219653322 -278.2879045522639 614.4747865225722 -313.05450428687334 770.6846445718193 -253.4048462660412C926.8945026210663 -193.755188245209 972.9340504612912 -212.95299893387607 1081.1249281356625 58.5703012573274C1189.3158058100335 330.09360144853076 1408.051128166333 899.7556886484458 1290.0008574088024 1049.9069946517334 "></path><path d="M1052.744604541061 72.79648657074267C1156.4275289790005 333.006315920646 1366.0488795704541 878.9324828205647 1252.9173700944866 1022.8274844070486C1139.7858606185196 1166.7224859935322 827.8354613835838 802.3644709010505 509.7133590564199 763.4924941858649C191.5912567292562 724.6205174706793 -79.33222449092341 993.9896822229482 -274.06872107590164 836.2419961741548C-468.80521766087986 678.4943101253616 -551.7401534244802 222.5190045890015 -425.02182455147465 6.303601151659677C-298.30349567846906 -209.91180228568203 88.29151640122234 -153.15791998672086 334.1792575145255 -201.59194032508486C580.0669986278281 -250.02596066344887 605.5382188285164 -283.3439520757829 755.2393327923783 -226.17969647248543C904.9404467562399 -169.01544086918796 949.0616801031222 -187.41334277916053 1052.744604541061 72.79648657074267C1156.4275289790005 333.006315920646 1366.0488795704541 878.9324828205647 1252.9173700944866 1022.8274844070486 "></path><path d="M1024.3644030167727 87.02276343689255C1123.5393742182798 335.9191219454956 1324.0467530448877 858.109368545418 1215.834004850484 995.7480657150979C1107.6212566560805 1133.3867628847784 809.2339182574465 784.8704006224043 504.9432116836374 747.6885098513571C200.65250510982867 710.50661908031 -58.49169431816938 968.164081017263 -244.76138670380067 817.2749900140695C-431.03107908943196 666.3858990108761 -510.3601480807019 230.23560675870522 -389.1513117673922 23.42087303603057C-267.94247545408257 -183.39386068664425 101.84405783953537 -129.10753848763784 337.04102760008595 -175.43573185476868C572.2379973606367 -221.76392522189946 596.6017732047733 -253.63330831195816 739.7941430832498 -198.95445512619528C882.9865129617262 -144.27560194043247 925.1894318152656 -161.8735950717106 1024.3644030167727 87.02276343689255C1123.5393742182798 335.9191219454956 1324.0467530448877 858.109368545418 1215.834004850484 995.7480657150979 "></path><path d="M995.9842014924839 101.24894875030782C1090.6512194575587 338.83183641761093 1282.044626519321 837.2861627175366 1178.7506396064812 968.6685554704131C1075.4566526936414 1100.0509482232897 790.6323751313089 767.3762387910238 500.1730643108549 731.884433964115C209.71375349040102 696.3926291372063 -37.65116414541524 942.3383882588432 -215.4540523316996 798.3078923012495C-393.25694051798405 654.2773963436557 -468.98014273692354 237.95211737567456 -353.28079898330975 40.53805336766686C-237.58145522969596 -156.87601064034078 115.39659927784851 -105.05724854128925 339.90279768564665 -149.27961493718686C564.408996093445 -193.50198133308442 587.6653275810299 -223.92275610086773 724.3489533741213 -171.72930533263957C861.0325791672121 -119.53585456441141 901.317183527409 -136.33393891699507 995.9842014924839 101.24894875030782C1090.6512194575587 338.83183641761093 1282.044626519321 837.2861627175366 1178.7506396064812 968.6685554704131 "></path><path d="M967.6040304857734 115.47525613403582C1057.7630952144161 341.74467296003866 1240.0425305113324 816.463078959968 1141.6673048800565 941.5891672960408C1043.2920792487807 1066.715255632114 772.0308625227497 749.8821990299557 495.4029474556505 716.0804801471854C218.7750323885516 682.2787612644154 -16.81060345508297 916.5128175707364 -186.1466874420205 779.3409166587421C-355.482771428958 642.1690157467483 -427.60010687556706 245.6687500629564 -317.4102556816492 57.65535576961588C-207.22040448773123 -130.35803852372487 128.94917123373966 -81.00683652462817 342.7645982887857 -123.12337594929255C556.5800253438315 -165.23991537395693 578.728912474865 -194.2120818194648 708.9037941825707 -144.5040334687713C839.0786758902766 -94.79598511807785 877.4449657571306 -110.79416069196702 967.6040304857734 115.47525613403582C1057.7630952144161 341.74467296003866 1240.0425305113324 816.463078959968 1141.6673048800565 941.5891672960408 "></path><path d="M939.2237984439066 129.70141092987308C1024.874909936117 344.65735691457576 1198.0403734681877 795.6398426145086 1104.5839091184755 914.5096265337777C1011.1274447687633 1033.379410453047 753.429288879034 732.388006680997 490.6327695652899 700.2763737423652C227.83625025154583 668.1647408037338 4.029896200093049 890.6870942947385 -156.83938358749754 760.3737884283441C-317.70866337508824 630.0604825619498 -386.22013204936684 253.38523016234763 -281.53977341514485 74.77250558367405C-176.85941478092286 -103.84021899499959 142.50168215447457 -56.95657709585771 345.62633785676815 -96.96728954928886C548.750993559062 -136.97800200272002 569.7924363335437 -164.5015601259525 693.458573955864 -117.2789141927937C817.1247115781846 -70.05626825963486 853.5726869516959 -85.2545350548296 939.2237984439066 129.70141092987308C1024.874909936117 344.65735691457576 1198.0403734681877 795.6398426145086 1104.5839091184755 914.5096265337777 "></path><path d="M910.8435969196178 143.9276572784447C991.9867551753964 347.57013242184735 1156.038246942621 774.8166978217835 1067.5005438744727 887.4301773242491C978.9628408063243 1000.0436568267148 734.8277457528964 714.8939058847725 485.8626221925074 684.4723588902793C236.8974986321183 654.0508118957862 24.870426372847305 864.8614625714749 -127.53204921539657 741.4067517506803C-279.93452480364033 617.9520409298857 -344.84012670558843 261.1018018144732 -245.66926063106234 91.8897469504667C-146.49839455653625 -77.32230791353987 156.0542235927876 -32.906226114352876 348.48810794232895 -70.8111115965508C540.9219922918703 -108.71599707874873 560.8559907098002 -134.7909468797058 678.0133842467355 -90.05370336408168C795.1707777836707 -45.316459848457555 829.7004386638396 -59.714817864957865 910.8435969196178 143.9276572784447C991.9867551753964 347.57013242184735 1156.038246942621 774.8166978217835 1067.5005438744727 887.4301773242491 "></path><path d="M882.4634564304854 158.15390362701646C959.098661449832 350.4829079291188 1114.0361814522107 753.9935530290586 1030.4172396656263 860.3507281147208C946.7982978790415 966.7079032003828 716.2262636619153 697.3998050885484 481.09253585488113 668.6683440381935C245.95880804784701 639.936882987839 45.7110175807577 839.0358308482116 -98.22465380813924 722.4397150730167C-242.16032519703617 605.8435992978218 -303.4600603266539 268.8183734665989 -209.79868681182364 109.00698831725936C-116.13731329699345 -50.804396832080215 169.60682606625687 -8.855875132848041 351.3499390630458 -44.65493364381274C533.0930520598349 -80.45399215477744 551.9196061212133 -105.08033363345913 662.5682555727631 -62.82849253536966C773.2169050243131 -20.576651437280248 805.8282514111393 -34.175100675086014 882.4634564304854 158.15390362701646C959.098661449832 350.4829079291188 1114.0361814522107 753.9935530290586 1030.4172396656263 860.3507281147208 "></path><path d="M854.0831938710405 172.38014997558798C926.2104456539548 353.3956834363903 1072.0339938914879 733.1704082363337 993.333813386467 833.271278905192C914.6336328814464 933.3721495740506 697.6246595006214 679.9057042923239 476.3223274469424 652.8643291861076C255.01999539326312 625.8229540798916 66.55148671835559 813.2101991249483 -68.91738047119452 703.4726783953531C-204.38624766074457 593.7351576657578 -262.08011601803173 276.53494511872464 -173.92823506289744 126.12422968405201C-85.77635410776315 -24.2864857506205 183.15930646941365 15.19447584865685 354.21164811345034 -18.49875569107462C525.263989757487 -52.19198723080615 542.9830994623137 -75.36972038721245 647.1230048284783 -35.6032817066577C751.2629101946432 4.163156973897117 781.9559420881264 -8.635383485214277 854.0831938710405 172.38014997558798C926.2104456539548 353.3956834363903 1072.0339938914879 733.1704082363337 993.333813386467 833.271278905192 "></path><path d="M825.7030228643303 186.60639632415962C893.322321410812 356.3084589436618 1030.0318978834994 712.3472634436089 956.2504786600423 806.1918296956633C882.4690594365854 900.0363959477181 679.0231468920622 662.4116034960996 471.552210591738 637.0603143340218C264.0812742914137 611.7090251719443 87.39204740868786 787.3845674016848 -39.61001558151537 684.5056417176893C-166.61207857171854 581.6267160336938 -220.7000801566753 284.2515167708501 -138.05769176123687 143.24147105084467C-55.41530336579842 2.2314253308391585 196.7118784253048 39.244826830161685 357.07344871658916 7.657422261663385C517.4350190078735 -23.92998230683486 534.0466843561487 -45.65910714096577 631.6778456369279 -8.378070877945675C729.3090069177074 28.902965385074424 758.083724317848 16.904333704657518 825.7030228643303 186.60639632415962C893.322321410812 356.3084589436618 1030.0318978834994 712.3472634436089 956.2504786600423 806.1918296956633 "></path><path d="M797.3228213400412 200.83264267273125C860.4341666500914 359.22123445093325 988.0297713579328 691.5241186508838 919.1671134160397 779.112380486135C850.3044554741464 866.7006423213859 660.4216037659248 644.9175026998752 466.7820632189554 621.2562994819361C273.14252267198617 597.595096263997 108.232577581442 761.5589356784217 -10.302681209414345 665.5386050400257C-128.83794000027063 569.5182744016299 -179.3200748128969 291.9680884229758 -102.18717897715442 160.35871241763732C-25.054283141411872 28.749336412298817 210.26441986361772 63.29517781166652 359.93521880214985 33.81360021440145C509.606017740682 4.332022617136431 525.1102387324055 -15.948493894719093 616.2326559277994 18.847139950766348C707.3550731231935 53.64277379625179 734.2114760299914 42.44405089452931 797.3228213400412 200.83264267273125C860.4341666500914 359.22123445093325 988.0297713579328 691.5241186508838 919.1671134160397 779.112380486135 "></path><path d="M768.9426198157526 215.058889021303C827.5460118893704 362.13400995820484 946.0276448323661 670.7009738581588 882.0837481720366 752.0329312766062C818.1398515117073 833.3648886950537 641.8200606397872 627.4234019036508 462.0119158461729 605.4522846298503C282.2037710525585 583.4811673560497 129.07310775419614 735.7333039551581 19.00465316268668 646.5715683623621C-91.06380142882273 557.4098327695659 -137.9400694691186 299.6846600751014 -66.31666619307197 177.47595378442998C5.306737082974678 55.26724749375853 223.81696130193075 87.34552879317135 362.79698888771054 59.969778167139566C501.77701647349045 32.59402754110772 516.1737931086622 13.762119351527588 600.7874662186709 46.07235077947831C685.4011393286796 78.3825822074291 710.3392277421349 67.9837680844011 768.9426198157526 215.058889021303C827.5460118893704 362.13400995820484 946.0276448323661 670.7009738581588 882.0837481720366 752.0329312766062 "></path><path d="M740.5624793266202 229.28513536987464C794.6579181638058 365.0467854654763 904.0255793419556 649.8778290654338 845.0004439631903 724.9534820670776C785.9753085844245 800.0291350687214 623.218578548806 609.9293011074265 457.24182950854663 589.6482697777644C291.2650804682871 569.3672384481023 149.91369896210654 709.9076722318948 48.312048569943954 627.6045316846984C-53.28960182221857 545.3013911375019 -96.56000309018395 307.401231727227 -30.446092373833267 194.59319515122263C35.66781834251748 81.78515857521819 237.3695637753999 111.39587977467625 365.6588200084276 86.12595611987763C493.94807624145517 60.856032465078954 507.2374085200752 43.47273259777427 585.3423375446987 73.29756160819034C663.4472665693222 103.1223906186064 686.4670404894346 93.5234852742729 740.5624793266202 229.28513536987464C794.6579181638058 365.0467854654763 904.0255793419556 649.8778290654338 845.0004439631903 724.9534820670776 "></path><path d="M712.1822167671753 243.51138171844627C761.7697023679289 367.9595609727478 862.0233917812329 629.054684272709 807.9170176840312 697.874032857549C753.8106435868294 766.6933814423892 604.6169743875123 592.4352003112022 452.47162110060776 573.8442549256786C300.32626781370345 555.253309540155 170.75416809970443 684.0820405086315 77.61932190688873 608.6374950070348C-15.515524285926915 533.192949505438 -55.180058781561854 315.1178033793526 5.42435937509299 211.71043651801529C66.02877753174778 108.3030696566779 250.9220441785567 135.44623075618108 368.52052905883204 112.28213407261569C486.1190139391074 89.11803738905024 498.3009018611757 73.18334584402095 569.897086800414 100.52277243690236C641.4932717396522 127.86219902978377 662.5947311664218 119.0632024641447 712.1822167671753 243.51138171844627C761.7697023679289 367.9595609727478 862.0233917812329 629.054684272709 807.9170176840312 697.874032857549 "></path><path d="M683.8020152428867 257.7376280670179C728.8815476072082 370.8723364800194 820.0212652556661 608.231539479984 770.8336524400283 670.7945836480204C721.6460396243904 733.357627816057 586.0154312613748 574.9410995149779 447.70147372782526 558.0402400735927C309.3875161942758 541.1393806322077 191.59469827245857 658.2564087853682 106.92665627898975 589.6704583293711C22.25861428552099 521.0845078733742 -13.800053437783504 322.8343750314782 41.29487215917544 228.82767788480794C96.38979775613439 134.82098073813756 264.47458561686983 159.49658173768591 371.38229914439285 138.43831202535375C478.29001267191575 117.38004231302153 489.3644562374325 102.89395909026763 554.4518970912853 127.74798326561432C619.5393379451383 152.60200744096107 638.7224828785653 144.6029196540165 683.8020152428867 257.7376280670179C728.8815476072082 370.8723364800194 820.0212652556661 608.231539479984 770.8336524400283 670.7945836480204 "></path><path d="M655.421813718598 271.9638438980114C695.9933928464873 373.78508146971274 778.0191387300997 587.4083641696808 733.7502871960254 643.7151039209136C689.4814356619512 700.0218436721465 567.4138881352372 557.4469682011753 442.93132635504276 542.2361947039287C318.44876457484816 527.0254212066822 212.43522844521272 632.4307465445265 136.23399065109078 570.7033911341292C60.0327528569689 508.9760357237319 27.579951905994847 330.5509161660257 77.16538494325789 245.9448887340224C126.75081798052094 161.3388613020191 278.02712705518286 183.54690220161262 374.24406922995354 164.5944594605137C470.4610114047242 145.6420167194147 480.42801061368914 132.60454181893618 539.0067073821568 154.97316357674822C597.5854041506244 177.3417853345603 614.8502345907089 170.14260632631016 655.421813718598 271.9638438980114C695.9933928464873 373.78508146971274 778.0191387300997 587.4083641696808 733.7502871960254 643.7151039209136 "></path><path d="M627.0416121943093 286.19005972900493C663.1052380857665 376.6978264594061 736.017012204533 566.5851888593778 696.6669219520226 616.635624193807C657.3168316995122 666.6860595282362 548.8123450090998 539.9528368873729 438.16117898226025 526.4321493342647C327.5100129554206 512.9114617811567 233.27575861796686 606.6050843036851 165.5413250231918 551.7363239388875C97.8068914284168 496.8675635740899 68.9599572497732 338.26745730057326 113.03589772734034 263.06209958323694C157.11183820490749 187.8567418659007 291.5796684934959 207.59722266553933 377.10583931551423 190.75060689567363C462.6320101375326 173.90399112580786 471.4915649899459 162.31512454760468 523.5615176730282 182.19834388788212C575.6314703561106 202.0815632281595 590.9779863028523 195.68229299860383 627.0416121943093 286.19005972900493C663.1052380857665 376.6978264594061 736.017012204533 566.5851888593778 696.6669219520226 616.635624193807 "></path><path d="M598.6614106700206 300.4163365951547C630.2170833250457 379.6106324842557 694.0148856789664 545.762074584231 659.5835567080198 589.5562055018565C625.1522277370732 633.350336419482 530.2108018829624 522.4587666087266 433.39103160947775 510.62816499975713C336.5712613359931 498.79756339078756 254.116288790721 580.7794830979999 194.84865939529283 532.7693177788019C135.5810299998647 484.759152459604 110.33996259355155 345.984059470277 148.9064105114228 280.1793714676077C187.47285842929404 214.37468346493847 305.1322099318088 231.64760416462235 379.9676094010749 216.90681536598981C454.80300887034105 202.16602656735728 462.5551193662027 192.0257683114295 508.1163279638997 209.4235852341722C553.6775365615968 226.82140215691493 567.1057380149957 221.22204070605375 598.6614106700206 300.4163365951547C630.2170833250457 379.6106324842557 694.0148856789664 545.762074584231 659.5835567080198 589.5562055018565 "></path><path d="M570.281209145732 314.6425676849373C597.3289285643248 382.5233927327381 652.0127591533997 524.9389145327169 622.500191464017 562.4767410335388C592.9876237746341 600.0145675343607 511.60925875682483 504.9646505537132 428.62088423669525 494.8241348888822C345.63250971656544 484.6836192240512 274.95681896347514 554.9538361159474 224.15599376739385 513.8022658423492C173.35516857131262 472.65069556875096 151.7199679373299 353.7006158636135 184.77692329550524 297.2965975756113C217.83387865368064 240.89257928760912 318.68475137012183 255.69793988733812 382.8293794866356 243.0629780599388C446.9740076031494 230.4280162325395 453.61867374245946 221.7363662988871 492.6711382547712 236.64878080409517C531.723602767083 251.56119530930323 543.2334897271392 246.76174263713642 570.281209145732 314.6425676849373C597.3289285643248 382.5233927327381 652.0127591533997 524.9389145327169 622.500191464017 562.4767410335388 "></path><path d="M541.9010076214433 328.868829292298C564.4407738036041 385.43618349879875 610.010632627833 504.115784998781 585.4168262200142 535.3973070827992C560.8230198121952 566.6788291668175 493.00771563068747 487.470565016278 423.85073686391263 479.0201352955854C354.6937580971379 470.56970557489285 295.7973491362293 529.1282196514732 253.46332813949488 494.8352444234746C211.12930714276047 460.54226919547614 193.09997328110825 361.41720277452816 220.6474360795877 314.41385420119303C248.1948988780672 267.41050562785784 332.2372928084349 279.748306127632 385.6911495721964 269.21917127146594C439.1450063359579 258.69003641529986 444.68222811871624 251.44699480392285 477.2259485456427 263.87400689159625C509.7696689725692 276.3010189792696 519.3612414392826 272.3014750857973 541.9010076214433 328.868829292298C564.4407738036041 385.43618349879875 610.010632627833 504.115784998781 585.4168262200142 535.3973070827992 "></path><path d="M513.5208213559438 343.0950451232915C531.5526343016722 388.3489284884921 568.0085213610555 483.292609688478 548.3334762348004 508.31782735569254C528.6584311085452 533.3430450229072 474.40618776333895 469.97643370247556 419.0806047499192 463.21608992592144C363.7550217364994 456.4557461493674 316.6378945677725 503.3025574106316 282.77067777038496 475.86817722823275C248.90346097299744 448.433797045834 234.47999388367566 369.1337439090757 256.5179641224592 331.53106505040756C278.5559343612428 293.9283861917394 345.789849505537 303.79862659155873 388.5529349165462 295.3753187066259C431.3160203275554 286.95201082169297 435.74579775376196 281.1575775325914 461.7807740953032 291.0991872027301C487.8157504368444 301.0407968728688 495.4890084102152 297.84116175809095 513.5208213559438 343.0950451232915C531.5526343016722 388.3489284884921 568.0085213610555 483.292609688478 548.3334762348004 508.31782735569254 "></path><path d="M485.14061983165504 357.3212762130741C498.66447954095145 391.2616887369745 526.0063948354889 462.4694496369639 511.25011099079757 481.23836288737493C496.4938271461061 500.00727613778577 455.8046446372015 452.4823176474621 414.3104573771367 447.4120598150466C372.8162701170718 442.34180198263107 337.47842474052663 477.47691042857923 312.078012142486 456.9011252917801C286.67759954444534 436.32534015498095 275.859999227454 376.8503003024122 292.3884769065417 348.6482911584111C308.91695458562936 320.44628201441003 359.34239094385 327.8489623142745 391.41470500210687 321.5314814005749C423.48701906036376 315.2140004868752 426.8093521300188 310.868175520049 446.3355843861747 318.32438277265305C465.8618166423305 325.7805900252571 471.61676012235864 323.3808636891737 485.14061983165504 357.3212762130741C498.66447954095145 391.2616887369745 526.0063948354889 462.4694496369639 511.25011099079757 481.23836288737493 "></path><path d="M456.7604183073664 371.5475225616458C465.77632478023065 394.17446424424605 484.0042683099223 441.646304844239 474.16674574679473 454.1589136778463C464.3292231836671 466.6715225114536 437.203101511064 434.9882168512378 409.5403100043541 431.6080449629607C381.87751849764425 428.2278730746837 358.3189549132808 451.6512787053158 341.385346514587 437.9340886141164C324.45173811589325 424.216898522917 317.24000457123236 384.5668719545378 328.25898969062416 365.76553252520375C339.27797481001596 346.9641930958697 372.894932382163 351.8993132957794 394.2764750876676 347.68765935331294C415.65801779317223 343.4760054108465 417.8729065062755 340.5787887662957 430.8903946770461 345.5495936013651C443.9078828478167 350.5203984364344 447.74451183450213 348.9205808790455 456.7604183073664 371.5475225616458C465.77632478023065 394.17446424424605 484.0042683099223 441.646304844239 474.16674574679473 454.1589136778463 "></path><path d="M428.3802015242887 385.77375365142836C432.8881547607208 397.0872244927285 442.0021265255666 420.823144792725 437.08336524400283 427.0794492095286C432.16460396243906 433.33575362633223 418.60154312613747 417.49410079622436 404.7701473727825 415.80401485208586C390.9387516194276 414.11392890794735 379.15946982724586 425.82563172326337 370.692665627899 418.96703667766366C362.2258614285521 412.10844163206394 358.61999465622165 392.2834283478744 364.12948721591755 382.88275863320735C369.63897977561345 373.48208891854034 386.447458561687 375.94964901849517 397.1382299144393 373.84382204726194C407.8290012671916 371.7379950760287 408.9364456237432 370.2893867537533 415.44518970912856 372.774789171288C421.95393379451383 375.2601915888227 423.8722482878565 374.4602828101282 428.3802015242887 385.77375365142836C432.8881547607208 397.0872244927285 442.0021265255666 420.823144792725 437.08336524400283 427.0794492095286 "></path></g></svg>